<?xml version="1.0" encoding="UTF-8"?>
<svg id="Layer_1" data-name="Layer 1" xmlns="http://www.w3.org/2000/svg" version="1.1" viewBox="0 0 595.28 441.68">
  <defs>
    <style>
      .cls-1 {
        font-family: Poppins-Bold, Poppins;
        font-size: 15.49px;
        font-weight: 700;
        letter-spacing: .1em;
      }

      .cls-1, .cls-2 {
        fill: #fff;
      }

      .cls-2 {
        stroke-width: 0px;
      }
    </style>
  </defs>
  <text class="cls-1" transform="translate(192.19 392.85)"><tspan x="0" y="0">APPLICATION SECURITY</tspan><tspan x="-8.59" y="18.59">VERIFICATION STANDARD</tspan></text>
  <path class="cls-2" d="M260.01,201.81h36.65l-50.42,142.15h-43.34l-50.42-142.15h36.85l35.24,107.32,35.44-107.32ZM37.37,122.02v129.2c0,31.73,25.72,57.44,57.44,57.44h32.33v-28.72h-32.33c-15.84,0-28.72-12.89-28.72-28.72V122.02c0-15.84,12.88-28.72,28.72-28.72h32.33v-28.72h-32.33c-31.73,0-57.44,25.72-57.44,57.44ZM195.32,148.45l1.9-5.58h18.57l8.79-28.72h-17.61l14.88-44.47,17.62,52.04,8.91,26.73,8.5,25.11h36.65L242.09,31.4h-40.09l-51.44,142.15h36.25l8.51-25.11ZM392.04,143.69c-2.97,2.36-7.02,3.55-12.15,3.55s-9.05-1.38-12.15-4.15c-3.11-2.77-4.93-6.78-5.47-12.05h-36.85c.27,9.32,2.87,17.28,7.8,23.89,4.93,6.62,11.51,11.61,19.74,14.98,8.23,3.38,17.55,5.06,27.94,5.06s19.91-1.96,27.74-5.87c7.83-3.92,13.8-9.18,17.92-15.8,4.12-6.61,6.18-13.97,6.18-22.07,0-8.51-2.09-15.46-6.28-20.86-4.19-5.4-9.15-9.52-14.88-12.35-5.74-2.84-13.2-5.8-22.38-8.91-9.18-2.97-15.93-5.74-20.25-8.3-4.32-2.56-6.48-6.14-6.48-10.73,0-4.18,1.28-7.39,3.85-9.62,2.56-2.23,5.94-3.34,10.13-3.34,4.86,0,8.84,1.32,11.95,3.95,3.1,2.63,4.79,6.25,5.06,10.83h37.46c-.68-13.37-5.81-23.79-15.39-31.29-9.59-7.49-22.21-11.24-37.87-11.24s-27.88,3.75-37.46,11.24c-9.59,7.49-14.38,17.86-14.38,31.08,0,8.91,2.09,16.13,6.28,21.67,4.18,5.54,9.18,9.72,14.98,12.56,5.8,2.84,13.29,5.67,22.48,8.51,6.34,1.89,11.24,3.58,14.68,5.06,3.44,1.49,6.34,3.38,8.71,5.67,2.36,2.3,3.54,5.2,3.54,8.71,0,4.19-1.49,7.46-4.45,9.82ZM502.61,64.57h-32.33v28.72h32.33c15.84,0,28.72,12.89,28.72,28.72v129.21c0,15.84-12.88,28.72-28.72,28.72h-32.33v28.72h32.33c31.73,0,57.44-25.72,57.44-57.44V122.02c0-31.73-25.72-57.44-57.44-57.44ZM413.4,268.43c-5.74-2.84-13.19-5.8-22.37-8.91-9.18-2.97-15.93-5.74-20.25-8.3-4.32-2.56-6.48-6.14-6.48-10.73,0-4.18,1.28-7.39,3.85-9.62,2.56-2.23,5.94-3.34,10.13-3.34,4.86,0,8.84,1.32,11.95,3.95,3.1,2.63,4.79,6.25,5.06,10.83h37.46c-.67-13.37-5.8-23.79-15.39-31.29-9.59-7.49-22.21-11.24-37.87-11.24s-27.88,3.75-37.46,11.24c-9.59,7.49-14.38,17.86-14.38,31.08,0,8.91,2.09,16.13,6.28,21.67,4.18,5.54,9.18,9.72,14.98,12.56,5.8,2.84,13.29,5.67,22.48,8.51,6.34,1.89,11.24,3.58,14.68,5.06,3.44,1.49,6.34,3.38,8.71,5.67,2.36,2.3,3.55,5.2,3.55,8.71,0,4.19-1.49,7.46-4.46,9.82-2.97,2.36-7.02,3.55-12.15,3.55s-9.05-1.38-12.15-4.15c-3.11-2.77-4.93-6.78-5.47-12.05h-36.85c.27,9.32,2.87,17.28,7.8,23.89,4.93,6.62,11.51,11.61,19.74,14.98,8.23,3.38,17.55,5.06,27.94,5.06s19.91-1.96,27.74-5.87c7.83-3.92,13.8-9.18,17.92-15.8,4.12-6.61,6.18-13.97,6.18-22.07,0-8.51-2.1-15.46-6.28-20.86-4.19-5.4-9.15-9.52-14.89-12.35Z"/>
</svg>