<?xml version="1.0" encoding="UTF-8"?>
<svg id="Layer_1" data-name="Layer 1" xmlns="http://www.w3.org/2000/svg" version="1.1" viewBox="0 0 595.28 518.16">
  <defs>
    <style>
      .cls-1 {
        font-family: Poppins-Bold, Poppins;
        font-size: 15.49px;
        font-weight: 700;
        letter-spacing: .1em;
      }

      .cls-1, .cls-2 {
        fill: #231f20;
      }

      .cls-2 {
        stroke-width: 0px;
      }
    </style>
  </defs>
  <text class="cls-1" transform="translate(192.19 469.33)"><tspan x="0" y="0">APPLICATION SECURITY</tspan><tspan x="-8.59" y="18.59">VERIFICATION STANDARD</tspan></text>
  <g>
    <path class="cls-2" d="M388.63,47.59c-.2-1.39-.89-2.49-2.06-3.28-.83-.56-1.76-.87-2.74-1.05-.87-.16-1.76-.17-2.64-.19-1.07-.01-2.14,0-3.21-.01-2.02,0-4.05,0-6.07,0-.32,0-.64,0-.96,0-.23,0-.3.08-.31.31,0,.08,0,.15,0,.23,0,.41,0,.81,0,1.22v10.04h0v11.23c0,.11,0,.22.01.33.02.15.09.22.24.25.06,0,.12,0,.18,0h2c.31,0,.39-.08.4-.38,0-.04,0-.08,0-.13,0-1.68,0-3.36,0-5.03,0-.3,0-.61,0-.91,0-.26.09-.34.35-.36.05,0,.1,0,.15,0,2.18,0,4.35,0,6.53,0,.9,0,1.8,0,2.7-.11.72-.1,1.43-.21,2.12-.46,1.63-.61,2.74-1.71,3.23-3.4.19-.66.23-1.35.26-2.03.04-1.03.06-2.05.07-3.08,0-1.06-.05-2.12-.2-3.18ZM385.77,54.91c-.21,1.03-.82,1.75-1.76,2.21-.67.32-1.39.45-2.13.5-.23.01-.45.01-.68.01-2.28,0-4.55,0-6.83,0-.21,0-.42.01-.63,0-.22-.02-.3-.1-.31-.32-.01-.25,0-.51,0-.76v-5.08h0v-5.64c0-.5.03-.53.53-.53,2.53,0,5.06,0,7.59,0,.83,0,1.63.12,2.39.46,1.16.53,1.8,1.43,1.93,2.7.12,1.12.19,2.23.18,3.36-.01,1.04-.07,2.07-.27,3.09ZM288.23,54.87h0c0-.67,0-1.33,0-2-.01-1.57-.02-3.14-.05-4.7,0-.42-.07-.84-.15-1.25-.27-1.36-1-2.38-2.25-3-.31-.15-.63-.3-.95-.41-1.14-.4-2.33-.56-3.52-.64-.9-.06-1.8-.07-2.7-.07-1.2,0-2.39.07-3.58.26-.88.15-1.75.37-2.56.76-1.27.6-2.08,1.58-2.41,2.95-.14.58-.2,1.16-.21,1.75-.01,1.06-.01,2.11-.01,3.16,0,3.06,0,6.12,0,9.18,0,.66.07,1.31.2,1.96.25,1.25.93,2.2,2.03,2.86.54.32,1.12.54,1.73.69,1.6.38,3.23.53,4.86.55,1.36.02,2.71-.09,4.06-.25.96-.12,1.89-.35,2.77-.75,1.5-.67,2.35-1.83,2.58-3.44.1-.7.13-1.41.14-2.12.02-1.83,0-3.66,0-5.49ZM285.39,55c0,1.97,0,3.93,0,5.89,0,.5-.06.99-.21,1.47-.23.75-.7,1.27-1.41,1.59-.5.23-1.04.33-1.58.44-1.26.25-2.54.35-3.82.3-1.22-.05-2.42-.23-3.59-.56-1.19-.34-1.85-1.16-2.01-2.37-.08-.56-.11-1.12-.11-1.69,0-3.51,0-7.01,0-10.52,0-.62.03-1.25.14-1.86.19-1.06.82-1.78,1.83-2.14.46-.16.94-.26,1.42-.34,1.11-.19,2.24-.29,3.37-.25,1.25.03,2.49.17,3.7.48.12.03.24.07.36.12,1.12.42,1.74,1.25,1.84,2.43.06.66.06,1.33.06,1.99,0,1.52,0,3.03,0,4.55v.28h.01v.18ZM365.96,58.28c-.22-1.42-.93-2.51-2.18-3.23-.4-.23-.82-.41-1.26-.51-.86-.2-1.72-.39-2.59-.55-.95-.17-1.91-.3-2.87-.45-.86-.14-1.73-.28-2.59-.43-.62-.11-1.25-.2-1.86-.35-1.18-.28-1.84-1.06-1.92-2.27-.04-.57-.03-1.15,0-1.72.01-.39.05-.79.12-1.18.19-.96.75-1.62,1.67-1.97.18-.07.37-.13.55-.17,1.75-.4,3.53-.56,5.32-.41.97.08,1.92.25,2.85.53.99.29,1.62.94,1.86,1.94.08.33.11.68.14,1.02.03.37.02.74.04,1.11,0,.29.05.33.35.34.17,0,.34,0,.51,0,.55,0,1.1,0,1.64,0,.27,0,.33-.08.32-.33,0-.27-.02-.54-.02-.81,0-.63-.05-1.25-.17-1.86-.28-1.46-1.05-2.53-2.42-3.16-.14-.06-.28-.12-.42-.18-1.18-.46-2.42-.66-3.68-.74-1.13-.07-2.26-.12-3.39-.07-1.03.04-2.06.09-3.07.27-.83.14-1.65.34-2.42.7-1.21.58-2.02,1.49-2.37,2.8-.14.51-.2,1.04-.22,1.57-.02.79-.02,1.59-.02,2.38,0,.3.03.61.09.9.33,1.67,1.32,2.79,2.89,3.4.53.2,1.09.35,1.65.46,1.34.24,2.69.45,4.04.66,1.27.2,2.55.41,3.82.61.49.08.97.21,1.42.44.71.38,1.18.95,1.34,1.74.08.42.12.85.15,1.28.04.67-.03,1.33-.15,1.99-.19,1.05-.78,1.78-1.82,2.09-1.09.32-2.2.5-3.33.57-.84.05-1.69.03-2.53-.05-.91-.09-1.8-.23-2.69-.47-.79-.22-1.39-.69-1.72-1.45-.13-.31-.24-.64-.27-.97-.06-.64-.07-1.29-.09-1.94,0-.29,0-.57,0-.86,0-.24-.05-.28-.29-.28-.73,0-1.47,0-2.2,0-.27,0-.31.05-.31.31,0,.3,0,.61,0,.91,0,.96-.02,1.92.17,2.87.29,1.43,1.06,2.48,2.39,3.1.17.08.35.16.53.23,1.04.41,2.14.57,3.25.69,1.02.11,2.05.13,3.08.13.53-.02,1.06-.04,1.59-.07.94-.05,1.87-.15,2.78-.36.81-.19,1.59-.44,2.3-.89.88-.55,1.47-1.32,1.78-2.31.17-.56.26-1.14.28-1.72.03-.77.03-1.55.03-2.33,0-.33-.02-.66-.07-.98ZM343.35,66.01v-8.7h0c0-2.69,0-5.38,0-8.07,0-.73-.05-1.45-.16-2.17-.24-1.48-1-2.57-2.35-3.23-.52-.26-1.07-.45-1.64-.59-1.19-.3-2.41-.39-3.63-.44-1.62-.08-3.24-.04-4.84.19-.73.11-1.46.23-2.17.45-.76.24-1.45.59-2.03,1.15-.79.77-1.16,1.73-1.27,2.8-.07.66-.09,1.33-.09,1.99-.01,2.71-.01,5.41-.02,8.12,0,2.08,0,4.17,0,6.25,0,.8,0,1.6,0,2.4,0,.44.07.51.52.5.04,0,.08,0,.13,0,.51,0,1.03,0,1.54,0,.09,0,.17,0,.25,0,.29,0,.38-.09.39-.37,0-.08,0-.17,0-.25,0-2.5,0-4.99-.01-7.49,0-.11,0-.22,0-.33.02-.21.12-.3.32-.32.08,0,.15,0,.23,0,.7,0,1.4,0,2.1,0,3.13,0,6.26,0,9.38-.01.07,0,.15,0,.23.02.18.03.27.12.3.29.01.1.01.2.01.3,0,2.54,0,5.07,0,7.61,0,.08,0,.17,0,.25.02.19.09.27.29.29.08,0,.17,0,.25,0,.56,0,1.11,0,1.67,0,.08,0,.17,0,.25,0,.24-.01.34-.11.35-.34,0-.1,0-.2,0-.3ZM340.53,55.06c-.01.29-.1.38-.38.39-.3,0-.61,0-.91,0h-10.78c-.44,0-.51-.07-.51-.52,0-2.01,0-4.01.01-6.02,0-.46.04-.91.14-1.36.2-.87.69-1.5,1.5-1.89.53-.25,1.1-.37,1.67-.46,1.43-.24,2.87-.27,4.31-.16.65.05,1.31.12,1.96.22.35.05.69.17,1.02.29,1.05.37,1.67,1.12,1.84,2.21.08.54.1,1.09.11,1.64.01,1.85,0,3.71.01,5.56,0,.03,0,.07,0,.1ZM320.43,43.27c-.02-.15-.08-.2-.23-.22-.06,0-.12,0-.18,0-.64,0-1.28,0-1.92,0-.07,0-.14,0-.2,0-.13.01-.22.08-.25.21-.02.12-.03.23-.03.35,0,1.72.02,3.44.02,5.16,0,3.82,0,7.64,0,11.46,0,.34,0,.69-.04,1.04-.05.42-.12.85-.23,1.26-.24.84-.78,1.4-1.62,1.66-.65.2-1.32.36-2,.43-1.37.14-2.69-.04-3.98-.5-.53-.19-.94-.53-1.2-1.03-.12-.22-.22-.46-.29-.7-.21-.69-.25-1.41-.25-2.13,0-5.03,0-10.05,0-15.08,0-.55,0-1.1,0-1.64,0-.44-.07-.51-.52-.5-.51,0-1.03,0-1.54,0-.15,0-.3,0-.45,0-.21.01-.27.06-.29.27-.01.13,0,.25,0,.38,0,5.49,0,10.98,0,16.47,0,.57-.02,1.14-.11,1.71-.2,1.29-.96,2.15-2.2,2.45-1.68.41-3.36.41-5.03,0-1.16-.29-1.87-1.03-2.11-2.2-.14-.68-.15-1.37-.15-2.07,0-5.48,0-10.96,0-16.44,0-.11,0-.22-.01-.33-.02-.16-.11-.24-.27-.25-.07,0-.14,0-.2,0-.62,0-1.23,0-1.85,0-.06,0-.12,0-.18,0-.21.02-.3.1-.32.32,0,.09,0,.18,0,.28,0,1.42,0,2.83,0,4.25,0,4.21,0,8.42,0,12.62,0,.82.03,1.64.21,2.44.35,1.57,1.26,2.67,2.77,3.26.25.1.51.18.77.25,1.09.31,2.22.42,3.35.43.95,0,1.91-.03,2.84-.23,1.53-.32,2.8-1.05,3.74-2.31.04-.05.09-.1.14-.16.06.07.11.13.15.18.72.98,1.67,1.66,2.83,2.03,1.03.33,2.1.47,3.18.51.66.02,1.32-.02,1.97-.1.83-.1,1.65-.24,2.45-.5,1.55-.5,2.55-1.52,2.96-3.11.18-.68.25-1.37.25-2.08,0-1.77,0-3.54,0-5.31,0-4.11,0-8.23,0-12.34,0-.07,0-.14-.01-.2Z"/>
    <path class="cls-2" d="M235.33,83.26c-15.07,0-27.3-12.22-27.3-27.3s12.22-27.3,27.3-27.3,27.29,12.22,27.29,27.3-12.22,27.3-27.29,27.3M235.33,32.87c-12.75,0-23.09,10.34-23.09,23.09s10.34,23.09,23.09,23.09,23.09-10.34,23.09-23.09-10.34-23.09-23.09-23.09M244.19,75.31c-.87,0-4.05-5.66-4.48-7.28-.89-3.38-.7-4.81-.65-5.26.16-1.39,1.52-2.09,1.6-3.97.03-.58.32-3.49.55-5.76-.58-.11-1.16-.37-1.67-.78,1.54,2.06-.73,4.54-4.02,7.83-3.49,3.49-11.25,6.74-11.25,6.74,0,0,3.24-7.76,6.74-11.25,2.57-2.57,4.64-4.51,6.4-4.51.5,0,.97.15,1.43.49-.41-.51-.67-1.09-.78-1.67-2.27.24-5.18.53-5.76.55-1.88.08-2.58,1.43-3.97,1.6-.16.02-.44.06-.88.06-.82,0-2.19-.12-4.38-.7-1.76-.46-8.3-4.19-7.14-4.65.59-.24,2.47-.4,4.95-.4s5.31.15,8.18.52c3.57.47,6.85,1.05,9.08,1.49.04-.12.08-.24.13-.35l-2.28-1.09s-1.82-2.09-1.63-2.24c0,0,.02,0,.03,0,.29,0,1.74,1.67,1.88,1.86.11.04.73.24,1.38.46l-.65-.56s-.88-3.27-.65-3.35c0,0,0,0,0,0,.24,0,1.04,2.85,1.11,3.05.16.14.69.35,1.35.73l-.7-1.8s.32-2.97.55-2.97c0,0,0,0,0,0,.24.05-.05,2.48-.11,2.78.09.13.62.96,1.16,1.78.33-.12.69-.19,1.05-.19.42,0,.85.08,1.27.24-.54-1.14-.5-2.33.22-3.04.22-.23.5-.38.8-.48.04-.21.13-.4.29-.56.21-.21.48-.31.75-.31s.58.11.8.34c.21.21.32.49.33.76.34-.71.75-1.66.72-1.97-.07-.7-.88-1.94-.89-1.95-.05-.08-.03-.19.05-.24.03-.02.06-.03.1-.03.06,0,.11.03.15.08.04.05.87,1.32.94,2.11.04.45-.48,1.58-.76,2.16.4.22.78.5,1.13.85s.64.74.85,1.13c.56-.27,1.63-.76,2.11-.76.02,0,.04,0,.05,0,.79.07,2.06.91,2.11.94.08.05.1.16.05.24-.03.05-.09.08-.15.08-.03,0-.07,0-.09-.03-.01,0-1.25-.82-1.95-.88-.01,0-.02,0-.03,0-.34,0-1.25.39-1.94.72.27,0,.55.12.76.33.44.44.45,1.13.03,1.55-.16.16-.35.26-.56.29-.09.3-.25.58-.48.8-.39.39-.93.58-1.52.58-.48,0-1.01-.12-1.52-.36.3.78.32,1.61.06,2.32.82.54,1.65,1.07,1.78,1.16.22-.04,1.52-.2,2.26-.2.3,0,.5.03.52.09.05.24-2.97.56-2.97.56l-1.8-.7c.38.67.59,1.2.73,1.36.21.07,3.12.89,3.05,1.12,0,.03-.06.04-.14.04-.64,0-3.2-.69-3.2-.69l-.57-.65c.22.65.42,1.27.46,1.38.2.15,1.99,1.72,1.85,1.91,0,.01-.02.01-.04.01-.31,0-2.2-1.64-2.2-1.64l-1.09-2.28c-.11.05-.23.1-.35.13.44,2.23,1.03,5.51,1.49,9.08.76,5.84.59,11.97.12,13.13-.04.09-.1.14-.17.14M255.76,78.34v.64h-1.08v2.97h-.76v-2.97h-1.08v-.64h2.92ZM258.59,78.34h1.08v3.61h-.7v-2.44c0-.07,0-.17,0-.29,0-.13,0-.22,0-.29l-.68,3.03h-.73l-.68-3.03c0,.07,0,.17,0,.29,0,.13,0,.22,0,.29v2.44h-.7v-3.61h1.1l.66,2.84.65-2.84Z"/>
  </g>
  <path class="cls-2" d="M260.01,278.29h36.65l-50.42,142.15h-43.34l-50.42-142.15h36.85l35.24,107.32,35.44-107.32ZM37.37,198.5v129.2c0,31.73,25.72,57.44,57.44,57.44h32.33v-28.72h-32.33c-15.84,0-28.72-12.89-28.72-28.72v-129.2c0-15.84,12.88-28.72,28.72-28.72h32.33v-28.72h-32.33c-31.73,0-57.44,25.72-57.44,57.44ZM195.32,224.93l1.9-5.58h18.57l8.79-28.72h-17.61l14.88-44.47,17.62,52.04,8.91,26.73,8.5,25.11h36.65l-51.44-142.15h-40.09l-51.44,142.15h36.25l8.51-25.11ZM392.04,220.17c-2.97,2.36-7.02,3.55-12.15,3.55s-9.05-1.38-12.15-4.15c-3.11-2.77-4.93-6.78-5.47-12.05h-36.85c.27,9.32,2.87,17.28,7.8,23.89,4.93,6.62,11.51,11.61,19.74,14.98,8.23,3.38,17.55,5.06,27.94,5.06s19.91-1.96,27.74-5.87c7.83-3.92,13.8-9.18,17.92-15.8,4.12-6.61,6.18-13.97,6.18-22.07,0-8.51-2.09-15.46-6.28-20.86-4.19-5.4-9.15-9.52-14.88-12.35-5.74-2.84-13.2-5.8-22.38-8.91-9.18-2.97-15.93-5.74-20.25-8.3-4.32-2.56-6.48-6.14-6.48-10.73,0-4.18,1.28-7.39,3.85-9.62,2.56-2.23,5.94-3.34,10.13-3.34,4.86,0,8.84,1.32,11.95,3.95,3.1,2.63,4.79,6.25,5.06,10.83h37.46c-.68-13.37-5.81-23.79-15.39-31.29-9.59-7.49-22.21-11.24-37.87-11.24s-27.88,3.75-37.46,11.24c-9.59,7.49-14.38,17.86-14.38,31.08,0,8.91,2.09,16.13,6.28,21.67,4.18,5.54,9.18,9.72,14.98,12.56,5.8,2.84,13.29,5.67,22.48,8.51,6.34,1.89,11.24,3.58,14.68,5.06,3.44,1.49,6.34,3.38,8.71,5.67,2.36,2.3,3.54,5.2,3.54,8.71,0,4.19-1.49,7.46-4.45,9.82ZM502.61,141.05h-32.33v28.72h32.33c15.84,0,28.72,12.89,28.72,28.72v129.21c0,15.84-12.88,28.72-28.72,28.72h-32.33v28.72h32.33c31.73,0,57.44-25.72,57.44-57.44v-129.2c0-31.73-25.72-57.44-57.44-57.44ZM413.4,344.91c-5.74-2.84-13.19-5.8-22.37-8.91-9.18-2.97-15.93-5.74-20.25-8.3-4.32-2.56-6.48-6.14-6.48-10.73,0-4.18,1.28-7.39,3.85-9.62,2.56-2.23,5.94-3.34,10.13-3.34,4.86,0,8.84,1.32,11.95,3.95,3.1,2.63,4.79,6.25,5.06,10.83h37.46c-.67-13.37-5.8-23.79-15.39-31.29-9.59-7.49-22.21-11.24-37.87-11.24s-27.88,3.75-37.46,11.24c-9.59,7.49-14.38,17.86-14.38,31.08,0,8.91,2.09,16.13,6.28,21.67,4.18,5.54,9.18,9.72,14.98,12.56,5.8,2.84,13.29,5.67,22.48,8.51,6.34,1.89,11.24,3.58,14.68,5.06,3.44,1.49,6.34,3.38,8.71,5.67,2.36,2.3,3.55,5.2,3.55,8.71,0,4.19-1.49,7.46-4.46,9.82-2.97,2.36-7.02,3.55-12.15,3.55s-9.05-1.38-12.15-4.15c-3.11-2.77-4.93-6.78-5.47-12.05h-36.85c.27,9.32,2.87,17.28,7.8,23.89,4.93,6.62,11.51,11.61,19.74,14.98,8.23,3.38,17.55,5.06,27.94,5.06s19.91-1.96,27.74-5.87c7.83-3.92,13.8-9.18,17.92-15.8,4.12-6.61,6.18-13.97,6.18-22.07,0-8.51-2.1-15.46-6.28-20.86-4.19-5.4-9.15-9.52-14.89-12.35Z"/>
</svg>